<svg xmlns="http://www.w3.org/2000/svg" class="svg-icon" style="width:1em;height:1em;vertical-align:middle;fill:currentColor;overflow:hidden" viewBox="0 0 1024 1024"><path d="M519.54 791.718c-155.64 0-282.254-126.609-282.254-282.234 0-155.628 126.613-282.24 282.253-282.24s282.254 126.613 282.254 282.24c0 155.625-126.614 282.234-282.254 282.234zm0-511.137c-126.224 0-228.916 102.68-228.916 228.903s102.692 228.895 228.915 228.895c126.224 0 228.916-102.673 228.916-228.895S645.763 280.58 519.539 280.58z"/><path d="M373.275 424.943c-2.318 0-4.662-.598-6.798-1.861-6.329-3.764-8.412-11.941-4.662-18.284 27.607-46.515 78.341-75.41 132.395-75.41 7.37 0 13.334 5.964 13.334 13.335s-5.964 13.334-13.334 13.334c-44.692 0-86.636 23.897-109.45 62.363a13.342 13.342 0 0 1-11.485 6.523zM353.651 491.721c-7.37 0-13.335-5.964-13.335-13.335 0-12.436 1.459-19.26 4.05-30.263 1.68-7.175 8.973-11.576 16.032-9.935 7.175 1.692 11.615 8.868 9.935 16.03-2.318 9.87-3.347 14.624-3.347 24.17 0 7.37-5.964 13.333-13.335 13.333zM530.269 958.712c-14.729 0-26.67-11.954-26.67-26.67v-80.008c0-14.74 11.941-26.669 26.67-26.669s26.669 11.928 26.669 26.67v80.008c.001 14.716-11.941 26.669-26.67 26.669zM530.269 198.633c-14.729 0-26.67-11.941-26.67-26.67V91.957c0-14.728 11.941-26.67 26.67-26.67s26.669 11.942 26.669 26.67v80.008c.001 14.728-11.941 26.669-26.67 26.669zM221.659 833.153a26.586 26.586 0 0 1-18.857-7.813c-10.417-10.418-10.417-27.294 0-37.712l56.569-56.568c10.417-10.418 27.294-10.418 37.712 0 10.417 10.417 10.417 27.294 0 37.713l-56.569 56.567a26.58 26.58 0 0 1-18.855 7.813zM759.105 295.713a26.582 26.582 0 0 1-18.855-7.813c-10.418-10.418-10.418-27.295 0-37.712l56.567-56.568c10.419-10.417 27.295-10.417 37.713 0 10.418 10.418 10.418 27.294 0 37.712L777.963 287.9a26.587 26.587 0 0 1-18.858 7.813zM278.227 295.713a26.582 26.582 0 0 1-18.855-7.813l-56.569-56.568c-10.417-10.418-10.417-27.294 0-37.712 10.419-10.417 27.295-10.417 37.712 0l56.569 56.568c10.417 10.417 10.417 27.294 0 37.712a26.586 26.586 0 0 1-18.857 7.813zM815.675 833.179a26.583 26.583 0 0 1-18.857-7.813l-56.567-56.594c-10.418-10.42-10.418-27.296 0-37.713 10.417-10.418 27.294-10.418 37.713 0l56.567 56.594c10.418 10.418 10.418 27.295 0 37.713a26.584 26.584 0 0 1-18.856 7.813zM171.967 545.332H91.96c-14.729 0-26.67-11.94-26.67-26.67s11.941-26.669 26.67-26.669h80.008c14.729 0 26.67 11.941 26.67 26.67s-11.942 26.67-26.67 26.67zM932.04 545.332h-80.01c-14.728 0-26.669-11.94-26.669-26.67s11.941-26.669 26.67-26.669h80.008c14.728 0 26.67 11.941 26.67 26.67s-11.941 26.67-26.67 26.67z"/></svg>